<?xml version="1.0" encoding="UTF-8"?>
<svg version="1.1" xmlns="http://www.w3.org/2000/svg" width="225" height="225">
<path d="M0 0 C74.25 0 148.5 0 225 0 C225 74.25 225 148.5 225 225 C150.75 225 76.5 225 0 225 C0 150.75 0 76.5 0 0 Z " fill="#060606" transform="translate(0,0)"/>
<path d="M0 0 C1.22351166 0.01078583 1.22351166 0.01078583 2.47174072 0.02178955 C3.33034698 0.0214975 4.18895325 0.02120544 5.07357788 0.02090454 C7.91977952 0.02230111 10.76572138 0.03787761 13.61187744 0.05352783 C15.58199928 0.0572568 17.55212296 0.06010432 19.52224731 0.06210327 C24.71400042 0.06974887 29.90564208 0.08940529 35.09735107 0.11151123 C40.39254244 0.13194973 45.68775177 0.14110071 50.98297119 0.15118408 C61.37755148 0.17265032 71.77204895 0.20679741 82.16656494 0.24884033 C82.17591064 0.99456299 82.18525635 1.74028564 82.19488525 2.50860596 C82.24892524 5.92266183 82.33250798 9.33539688 82.41656494 12.74884033 C82.43074463 13.92188721 82.44492432 15.09493408 82.45953369 16.30352783 C82.67062147 23.81825288 83.17137169 30.06885927 88.612854 35.76202393 C93.55511404 40.09387912 97.16745492 41.48522824 103.68218994 41.66290283 C104.93258057 41.70157471 106.18297119 41.74024658 107.47125244 41.78009033 C108.77320557 41.81102783 110.07515869 41.84196533 111.41656494 41.87384033 C112.73398682 41.91251221 114.05140869 41.95118408 115.40875244 41.99102783 C118.66121655 42.08530215 121.9136749 42.17090783 125.16656494 42.24884033 C125.21323475 61.64147545 125.24852911 81.03409921 125.27018929 100.42677879 C125.28051269 109.43063608 125.29459328 118.43445853 125.31744385 127.43829346 C125.33734523 135.28378021 125.35027363 143.12924173 125.35474193 150.97475302 C125.35735484 155.13092967 125.36351826 159.28703414 125.37802505 163.44318771 C125.39155768 167.35175544 125.39579639 171.26022096 125.3927803 175.16880989 C125.39333241 176.60637657 125.39733554 178.04394652 125.40497589 179.481493 C125.41486905 181.43820881 125.41135562 183.39497895 125.40707397 185.35171509 C125.40891756 186.44864874 125.41076115 187.54558239 125.4126606 188.67575645 C125.16656494 191.24884033 125.16656494 191.24884033 123.16656494 193.24884033 C120.9114151 193.50052261 120.9114151 193.50052261 118.04217529 193.50280762 C116.95689041 193.50844727 115.87160553 193.51408691 114.75343323 193.51989746 C113.5575206 193.515849 112.36160797 193.51180054 111.12945557 193.50762939 C109.8741655 193.51113403 108.61887543 193.51463867 107.32554626 193.51824951 C103.8772542 193.52738593 100.42908149 193.52382416 96.98078728 193.51749134 C93.37689765 193.5124378 89.77301843 193.51712099 86.16912842 193.52026367 C80.11633463 193.52390521 74.06358961 193.51909932 68.01080322 193.50958252 C61.00686247 193.49869759 54.00303814 193.50222303 46.99910021 193.51323533 C40.99227414 193.52230288 34.98548318 193.5235961 28.97865248 193.51835799 C25.38813842 193.51523535 21.79767914 193.51483697 18.20716858 193.52143097 C14.20593335 193.5282656 10.20489974 193.5188004 6.20367432 193.50762939 C4.40980537 193.51370209 4.40980537 193.51370209 2.57969666 193.51989746 C1.49441177 193.51425781 0.40912689 193.50861816 -0.70904541 193.50280762 C-2.12931911 193.50167654 -2.12931911 193.50167654 -3.57828522 193.50052261 C-5.83343506 193.24884033 -5.83343506 193.24884033 -7.83343506 191.24884033 C-8.0308472 188.74497928 -8.10274981 186.35164108 -8.08740234 183.84661865 C-8.09052233 183.07452954 -8.09364231 182.30244042 -8.09685683 181.50695467 C-8.10486847 178.90586617 -8.09850096 176.30500892 -8.09222412 173.70391846 C-8.09493258 171.8448218 -8.09849269 169.98572622 -8.10284424 168.12663269 C-8.11198777 163.06683424 -8.10841592 158.00711705 -8.10208607 152.94731712 C-8.09703621 147.66179555 -8.10171468 142.37628111 -8.1048584 137.09075928 C-8.10850101 128.21326442 -8.10369121 119.3358028 -8.09417725 110.45831299 C-8.08329214 100.18249044 -8.08681751 89.90674724 -8.09783006 79.63092661 C-8.10689453 70.8215792 -8.10819233 62.01225574 -8.10295272 53.20290518 C-8.09982839 47.93565666 -8.09943633 42.66844549 -8.1060257 37.40119934 C-8.11178635 32.45020887 -8.10782585 27.49932109 -8.09623718 22.54834175 C-8.09358371 20.72699212 -8.09436732 18.9056339 -8.09876251 17.08428764 C-8.10419246 14.6064275 -8.09741519 12.12890066 -8.08740234 9.65106201 C-8.09186379 8.92286271 -8.09632523 8.1946634 -8.10092187 7.44439745 C-8.04894765 0.85620141 -6.44847026 0.02385507 0 0 Z " fill="#FEFEFE" transform="translate(53.83343505859375,15.75115966796875)"/>
<path d="M0 0 C26.07 0 52.14 0 79 0 C79 74.25 79 148.5 79 225 C63.49 225 47.98 225 32 225 C35 223 35 223 37.875 221.75 C43.12870526 218.80792506 46.17068258 214.67323258 48 209 C48.31286825 205.82255653 48.31286825 205.82255653 48.28761292 202.34037781 C48.29426073 201.68429828 48.30090854 201.02821875 48.30775779 200.35225803 C48.32738784 198.16147286 48.33282077 195.9708925 48.33813477 193.7800293 C48.34903439 192.20607981 48.36070658 190.63213551 48.37309265 189.05819702 C48.40356007 184.78744189 48.4206064 180.51674057 48.43330884 176.24589896 C48.44140126 173.575864 48.45158203 170.90584439 48.46232414 168.23581886 C48.49503053 159.87652378 48.51893617 151.51726613 48.531138 143.15791577 C48.54539398 133.5178446 48.58927607 123.87850538 48.65863949 114.23867673 C48.71045074 106.78032824 48.73531342 99.32218775 48.73996013 91.86366206 C48.74335514 87.41198298 48.75816359 82.96104474 48.80124092 78.50955772 C48.84106888 74.32067334 48.84736486 70.13304459 48.82834053 65.94402695 C48.82707713 64.41057695 48.83769668 62.87706187 48.86135483 61.34379387 C49.13668374 51.64091258 49.13668374 51.64091258 44.71305847 43.29728699 C43.50319149 42.16764094 42.26800224 41.06397774 41 40 C40.25280701 39.2109024 39.50561401 38.42180481 38.73577881 37.60879517 C37.76006927 36.63189224 37.76006927 36.63189224 36.76464844 35.63525391 C36.01407166 34.88152496 35.26349487 34.12779602 34.49017334 33.35122681 C33.70450989 32.56758759 32.91884644 31.78394836 32.109375 30.9765625 C31.28294495 30.14917572 30.45651489 29.32178894 29.6050415 28.46932983 C27.87171138 26.73532354 26.13713518 25.00256204 24.40136719 23.27099609 C21.74037311 20.61539261 19.08480204 17.95444929 16.4296875 15.29296875 C14.73990418 13.60384564 13.04981099 11.91503244 11.359375 10.2265625 C10.16873444 9.03288559 10.16873444 9.03288559 8.95404053 7.81509399 C7.84708832 6.71287003 7.84708832 6.71287003 6.71777344 5.58837891 C6.07048279 4.94188385 5.42319214 4.29538879 4.75628662 3.62930298 C2.89167183 1.81278507 2.89167183 1.81278507 0 0 Z " fill="#FEFEFE" transform="translate(146,0)"/>
<path d="M0 0 C14.85 0 29.7 0 45 0 C41 3 41 3 39.18359375 4.359375 C38.31927734 5.04773438 38.31927734 5.04773438 37.4375 5.75 C36.85871094 6.19859375 36.27992187 6.6471875 35.68359375 7.109375 C31.24559105 12.09311817 30.55892802 17.67329023 30.61231995 24.11497498 C30.60693441 24.90343703 30.60154887 25.69189908 30.59600013 26.50425392 C30.58175797 29.1311712 30.5888149 31.75758191 30.59594727 34.38452148 C30.59024175 36.27403161 30.58327678 38.16353829 30.57514954 40.05303955 C30.55722339 45.17494947 30.55838548 50.29668802 30.56409192 55.41861987 C30.56718447 59.69796481 30.56109059 63.97727687 30.55505317 68.25661713 C30.54101141 78.35347901 30.54256643 88.45025628 30.55395508 98.54711914 C30.5654369 108.95648549 30.55135868 119.3655942 30.5245586 129.7749266 C30.50239365 138.71951085 30.495766 147.66401428 30.50163502 156.60862404 C30.50500376 161.94757988 30.50259484 167.28637057 30.48538399 172.62530327 C30.46990427 177.64623884 30.47388193 182.66679306 30.49268913 187.68771362 C30.49637211 189.5275115 30.49327505 191.36733769 30.48280334 193.20710945 C30.46957148 195.72452404 30.48115951 198.24068014 30.49879456 200.75804138 C30.48918955 201.48091683 30.47958454 202.20379228 30.46968848 202.94857305 C30.55906078 209.17646435 32.63792997 214.36870479 36.81640625 219.0234375 C37.68072266 219.69246094 37.68072266 219.69246094 38.5625 220.375 C39.14128906 220.83648437 39.72007813 221.29796875 40.31640625 221.7734375 C41.84869079 222.88976545 43.42259327 223.94839551 45 225 C30.15 225 15.3 225 0 225 C0 150.75 0 76.5 0 0 Z " fill="#FEFEFE" transform="translate(0,0)"/>
</svg>
